<svg xmlns="http://www.w3.org/2000/svg" width="24" height="24" viewBox="0 0 24 24" fill="none">
  <path fill-rule="evenodd" clip-rule="evenodd" d="M5.01022 2.53259C5.59667 2.53259 6.07208 3.008 6.07208 3.59446V20.5843C6.07208 21.1707 5.59667 21.6461 5.01022 21.6461C4.42377 21.6461 3.94836 21.1707 3.94836 20.5843V3.59446C3.94836 3.008 4.42377 2.53259 5.01022 2.53259Z" fill="url(#paint0_linear_18_280)" />
  <path fill-rule="evenodd" clip-rule="evenodd" d="M12.0894 2.53259C12.6758 2.53259 13.1512 3.008 13.1512 3.59446V20.5843C13.1512 21.1707 12.6758 21.6461 12.0894 21.6461C11.5029 21.6461 11.0275 21.1707 11.0275 20.5843V3.59446C11.0275 3.008 11.5029 2.53259 12.0894 2.53259Z" fill="url(#paint1_linear_18_280)" />
  <path fill-rule="evenodd" clip-rule="evenodd" d="M19.1684 2.53259C19.7549 2.53259 20.2303 3.008 20.2303 3.59446V20.5843C20.2303 21.1707 19.7549 21.6461 19.1684 21.6461C18.582 21.6461 18.1066 21.1707 18.1066 20.5843V3.59446C18.1066 3.008 18.582 2.53259 19.1684 2.53259Z" fill="url(#paint2_linear_18_280)" />
  <g filter="url(#filter0_b_18_280)">
    <circle cx="5.01029" cy="16.3368" r="2.83163" transform="rotate(90 5.01029 16.3368)" fill="#BFB5FF" fill-opacity="0.6" />
    <circle cx="5.01029" cy="16.3368" r="2.76084" transform="rotate(90 5.01029 16.3368)" stroke="url(#paint3_linear_18_280)" stroke-width="0.141582" />
  </g>
  <g filter="url(#filter1_b_18_280)">
    <circle cx="12.0894" cy="7.8419" r="2.83163" transform="rotate(90 12.0894 7.8419)" fill="#BFB5FF" fill-opacity="0.6" />
    <circle cx="12.0894" cy="7.8419" r="2.76084" transform="rotate(90 12.0894 7.8419)" stroke="url(#paint4_linear_18_280)" stroke-width="0.141582" />
  </g>
  <g filter="url(#filter2_b_18_280)">
    <circle cx="19.1684" cy="16.3368" r="2.83163" transform="rotate(90 19.1684 16.3368)" fill="#BFB5FF" fill-opacity="0.6" />
    <circle cx="19.1684" cy="16.3368" r="2.76084" transform="rotate(90 19.1684 16.3368)" stroke="url(#paint5_linear_18_280)" stroke-width="0.141582" />
  </g>
  <defs>
    <filter id="filter0_b_18_280" x="-0.652983" y="10.6736" width="11.3265" height="11.3265" filterUnits="userSpaceOnUse" color-interpolation-filters="sRGB">
      <feFlood flood-opacity="0" result="BackgroundImageFix" />
      <feGaussianBlur in="BackgroundImageFix" stdDeviation="1.41582" />
      <feComposite in2="SourceAlpha" operator="in" result="effect1_backgroundBlur_18_280" />
      <feBlend mode="normal" in="SourceGraphic" in2="effect1_backgroundBlur_18_280" result="shape" />
    </filter>
    <filter id="filter1_b_18_280" x="6.42612" y="2.17864" width="11.3265" height="11.3265" filterUnits="userSpaceOnUse" color-interpolation-filters="sRGB">
      <feFlood flood-opacity="0" result="BackgroundImageFix" />
      <feGaussianBlur in="BackgroundImageFix" stdDeviation="1.41582" />
      <feComposite in2="SourceAlpha" operator="in" result="effect1_backgroundBlur_18_280" />
      <feBlend mode="normal" in="SourceGraphic" in2="effect1_backgroundBlur_18_280" result="shape" />
    </filter>
    <filter id="filter2_b_18_280" x="13.5051" y="10.6736" width="11.3265" height="11.3265" filterUnits="userSpaceOnUse" color-interpolation-filters="sRGB">
      <feFlood flood-opacity="0" result="BackgroundImageFix" />
      <feGaussianBlur in="BackgroundImageFix" stdDeviation="1.41582" />
      <feComposite in2="SourceAlpha" operator="in" result="effect1_backgroundBlur_18_280" />
      <feBlend mode="normal" in="SourceGraphic" in2="effect1_backgroundBlur_18_280" result="shape" />
    </filter>
    <linearGradient id="paint0_linear_18_280" x1="5.60752" y1="8.04611" x2="0.809559" y2="9.59633" gradientUnits="userSpaceOnUse">
      <stop stop-color="#917FFB" />
      <stop offset="1" stop-color="#3F2DAF" />
    </linearGradient>
    <linearGradient id="paint1_linear_18_280" x1="12.6867" y1="8.04611" x2="7.88872" y2="9.59633" gradientUnits="userSpaceOnUse">
      <stop stop-color="#917FFB" />
      <stop offset="1" stop-color="#3F2DAF" />
    </linearGradient>
    <linearGradient id="paint2_linear_18_280" x1="19.7657" y1="8.04611" x2="14.9678" y2="9.59633" gradientUnits="userSpaceOnUse">
      <stop stop-color="#917FFB" />
      <stop offset="1" stop-color="#3F2DAF" />
    </linearGradient>
    <linearGradient id="paint3_linear_18_280" x1="1.47074" y1="20.5843" x2="7.13401" y2="14.2131" gradientUnits="userSpaceOnUse">
      <stop stop-color="white" />
      <stop offset="1" stop-color="white" stop-opacity="0" />
    </linearGradient>
    <linearGradient id="paint4_linear_18_280" x1="8.54985" y1="12.0894" x2="14.2131" y2="5.71818" gradientUnits="userSpaceOnUse">
      <stop stop-color="white" />
      <stop offset="1" stop-color="white" stop-opacity="0" />
    </linearGradient>
    <linearGradient id="paint5_linear_18_280" x1="15.6288" y1="20.5843" x2="21.2921" y2="14.2131" gradientUnits="userSpaceOnUse">
      <stop stop-color="white" />
      <stop offset="1" stop-color="white" stop-opacity="0" />
    </linearGradient>
  </defs>
</svg>
